<svg xmlns="http://www.w3.org/2000/svg" viewBox="0 0 351.72 84.45"><defs><style>.cls-1{fill:#89c900;}.cls-2{fill:#fff;}</style></defs><g id="Layer_2" data-name="Layer 2"><g id="Layer_1-2" data-name="Layer 1"><path class="cls-1" d="M96.67,57.09A11.8,11.8,0,0,1,93,59.18c-.91.32-1.37.77-1.37,1.35a1,1,0,0,0,.29.72c.63.66,1.4.56,2.91-.2a15.58,15.58,0,0,0,4.31-3.22,6.2,6.2,0,0,0,2-4,2.43,2.43,0,0,0-1-2,3.22,3.22,0,0,0-2-.61,8.71,8.71,0,0,0-3.47.79,16.06,16.06,0,0,0-3.91,2.5c-2.24,2-3.38,4.14-3.38,6.43a6.2,6.2,0,0,0,.85,3c.49.88,1.09,1.86,1.81,2.93a14.19,14.19,0,0,1,1,1.67,3,3,0,0,1,.29,1.33,2.37,2.37,0,0,1-1,2,6.19,6.19,0,0,1-3.91,1.31,3.07,3.07,0,0,1-1.76-.48,1.77,1.77,0,0,1-.76-1.53,1.71,1.71,0,0,1,1.32-1.68c.91-.3,1.09-.81,1.09-1.17s-.12-1.08-1.26-1.08a3,3,0,0,0-1.08.25,4.26,4.26,0,0,0-1.58,1,3.88,3.88,0,0,0-1.11,2.81,3.64,3.64,0,0,0,1.17,2.66,5.78,5.78,0,0,0,4.18,1.48A8.55,8.55,0,0,0,91.43,74C93.11,72.83,94,71.49,94,70a5.33,5.33,0,0,0-.69-2.47c-.39-.7-.86-1.47-1.4-2.29s-1-1.6-1.39-2.26a5,5,0,0,1-.62-2.31,5.47,5.47,0,0,1,1.19-3.17,10.23,10.23,0,0,1,3.79-3.15,6.94,6.94,0,0,1,2.93-.91,1,1,0,0,1,.61.19.69.69,0,0,1,.31.59C98.69,55,98,56,96.67,57.09Z"/><path class="cls-1" d="M105,64.61c0-1.72-1-2.08-1.75-2.08a4.09,4.09,0,0,0-2.27.86,12.35,12.35,0,0,0-3.51,3.92,10.22,10.22,0,0,0-1.6,5.08,2.85,2.85,0,0,0,.28,1.29,1.89,1.89,0,0,0,1.78,1.13c1.6,0,3.19-1.33,4.85-4.07C104.26,68.29,105,66.23,105,64.61ZM98.64,72.2A.4.4,0,0,1,98.3,72a.63.63,0,0,1-.1-.36A6.49,6.49,0,0,1,99,68.93a11,11,0,0,1,2.11-2.85c.91-.91,1.32-1,1.45-1s.13,0,.19.13a.19.19,0,0,1,0,.12A4.84,4.84,0,0,1,101.3,68c-.6.67-.64.83-.64,1a.91.91,0,0,0,.39.64l-.17.36a5.39,5.39,0,0,1-.66,1.05C99.64,71.81,99.1,72.2,98.64,72.2Z"/><path class="cls-1" d="M117.15,64.72a1.52,1.52,0,0,0-.67-1.22A2.47,2.47,0,0,0,115,63a11.25,11.25,0,0,0-3.33.83,51,51,0,0,1,6.7-10,2.27,2.27,0,0,0,.69-1.31.85.85,0,0,0-.35-.71c-.51-.45-1.28-.2-2.15.67a28.4,28.4,0,0,0-2.94,3.66,62.4,62.4,0,0,0-5.3,9.49c-1.54,1-2.26,1.86-2.26,2.6a.75.75,0,0,0,.6.82c-.14.33-.27.65-.41.95-.79,1.78-1.26,2.86-1.43,3.3a25.49,25.49,0,0,0-2,8,3.91,3.91,0,0,0,.49,2.1,1.93,1.93,0,0,0,1.69,1,3.53,3.53,0,0,0,2.5-1.24A14.52,14.52,0,0,0,109.67,80a19.86,19.86,0,0,0,2.62-9.31,6.31,6.31,0,0,0-.64-3,3.17,3.17,0,0,0-1.17-1.19,7.38,7.38,0,0,1,3.65-1.29,1.24,1.24,0,0,1,.49.08,3,3,0,0,0,1.34.54,1.17,1.17,0,0,0,.92-.44A1.07,1.07,0,0,0,117.15,64.72ZM105.62,81.79c-.07,0-.19,0-.33-.22a1.18,1.18,0,0,1-.18-.65,19.63,19.63,0,0,1,1.66-6.52c1-2.57,1.84-4.51,2.47-5.76a1.76,1.76,0,0,1,.54.41,3,3,0,0,1,.45,1.82,17.1,17.1,0,0,1-2,7.4C106.7,81.45,105.9,81.79,105.62,81.79Z"/><path class="cls-1" d="M123.62,67.87a1.2,1.2,0,0,0-1,.73,19,19,0,0,1-1.4,2c-1,1.28-1.57,1.55-1.9,1.55a.35.35,0,0,1-.32-.12.77.77,0,0,1-.12-.48,13.06,13.06,0,0,1,1.37-4.6,28.61,28.61,0,0,1,2-3.87l1.18-.37a16.27,16.27,0,0,1,2.62-.67h0a2.53,2.53,0,0,0,1-.21,1,1,0,0,0,.48-.87c0-.71-.46-1.12-1.27-1.12a10.16,10.16,0,0,0-2.15.35c.15-.23.34-.48.55-.77.93-1.28,1-1.74,1-2a1,1,0,0,0-.29-.67c-.49-.52-1-.46-1.65.19-.21.23-.58.69-1.11,1.42a33.64,33.64,0,0,0-2,3,7.21,7.21,0,0,1-1.08.29,6.38,6.38,0,0,0-1.41.26,1.09,1.09,0,0,0-.68,1,1,1,0,0,0,.54.88,1.42,1.42,0,0,0,1,.21c-.75,1.51-1.21,2.46-1.39,2.89A13.19,13.19,0,0,0,116.49,72a2.86,2.86,0,0,0,.43,1.68,2.09,2.09,0,0,0,1.75,1c1.25,0,2.56-.93,4-2.85,1.58-2.08,1.78-2.76,1.78-3.11a.78.78,0,0,0-.23-.53A.84.84,0,0,0,123.62,67.87Z"/><path class="cls-1" d="M138.37,62.82c-.87,0-1.45.66-1.72,2a12.23,12.23,0,0,1-.67,2.37,15.93,15.93,0,0,1-1.93,3.45c-.92,1.2-1.36,1.35-1.55,1.35,0,0,0,.11,0-.16,0-.51.33-1.69,1.89-4.45.89-1.64.89-1.82.89-1.93a.81.81,0,0,0-.31-.61,1.45,1.45,0,0,0-1.88.26,19.49,19.49,0,0,0-1.44,1.76c-3.12,4.05-4.09,4.49-4.38,4.44a5.18,5.18,0,0,1,.88-1.89,15.78,15.78,0,0,1,2.5-3.22,2.08,2.08,0,0,0,.78-1.29,1.06,1.06,0,0,0-1-1c-.5,0-1.4.33-3.35,3.2-1.59,2.33-2.36,4.12-2.36,5.49a2.43,2.43,0,0,0,.3,1.2,1.33,1.33,0,0,0,1.22.78,2.67,2.67,0,0,0,1.57-.61,14,14,0,0,0,1.6-1.52c.26-.28.61-.69,1-1.22a6.41,6.41,0,0,0-.23,1.58c0,1.73,1,2,1.67,2,1.35,0,2.92-1.43,4.79-4.38,1.77-2.78,2.64-4.92,2.64-6.55A.86.86,0,0,0,138.37,62.82Z"/><path class="cls-1" d="M148.19,67.35a3.18,3.18,0,0,0,.53-1.38,1.29,1.29,0,0,0-.22-.68,3,3,0,0,0,.26-1.05,1.56,1.56,0,0,0-.52-1.15,2.07,2.07,0,0,0-1.45-.54,4.55,4.55,0,0,0-2.64,1,11.73,11.73,0,0,0-3.42,4.17,9.78,9.78,0,0,0-1.28,4.48,3.08,3.08,0,0,0,.38,1.54,1.94,1.94,0,0,0,1.75,1,3.3,3.3,0,0,0,2.45-1.5c.18-.22.36-.47.54-.74a3,3,0,0,0,.64,1.91,2.36,2.36,0,0,0,1.88,1,1.18,1.18,0,0,0,.82-.31,1,1,0,0,0,.35-.77,1,1,0,0,0-.61-1A4.87,4.87,0,0,1,147,73a1.46,1.46,0,0,1-.36-1,7.52,7.52,0,0,1,.53-2.35A13.27,13.27,0,0,1,148.19,67.35Zm-1.42-1.9a1.89,1.89,0,0,0-.37.41,15.42,15.42,0,0,0-.93,1.7,28,28,0,0,1-1.56,2.9c-.91,1.45-1.47,1.67-1.73,1.67a.29.29,0,0,1-.26-.11.9.9,0,0,1-.11-.5,8.24,8.24,0,0,1,1.69-4.24c1-1.48,1.88-2.23,2.67-2.23a.61.61,0,0,1,.35.13A.94.94,0,0,1,146.77,65.45Z"/><path class="cls-1" d="M162,66.58a.74.74,0,0,0-.25-.55c-.32-.33-.7-.3-1.19,0a5.58,5.58,0,0,1-2.46,1.21c-.16,0-.16,0-.16-.11s.17-.71,1.7-1.93c.54-.44.78-.78.78-1.1a.93.93,0,0,0-.21-.56,1,1,0,0,0-.78-.52,1.62,1.62,0,0,0-.74.31,15.77,15.77,0,0,0-1.77,1.21c-.85.66-1.65,1.34-2.39,2l0,0,.95-1.19a1.68,1.68,0,0,0,.41-.93.86.86,0,0,0-.35-.69c-.66-.47-1.52-.1-2.57,1.25a25.18,25.18,0,0,0-3.23,6.12,11.92,11.92,0,0,0-1,3.34.86.86,0,0,0,1,.92,1.48,1.48,0,0,0,1.28-1,25.08,25.08,0,0,1,2.15-3.62,22.29,22.29,0,0,1,2.38-2.65v.07a1.22,1.22,0,0,0,.55,1.14,2.25,2.25,0,0,0,1.21.35,5.29,5.29,0,0,0,3.14-1.23C161.52,67.63,162,67.05,162,66.58Z"/><path class="cls-1" d="M170.78,68.23c-.34,0-.68.21-1.1.69-1.87,2.18-3.51,3.29-4.89,3.29a1.35,1.35,0,0,1-1.21-.52.89.89,0,0,1-.14-.5v-.1a9.46,9.46,0,0,0,5.34-4,4.77,4.77,0,0,0,.92-2.46,1.48,1.48,0,0,0-.58-1.22,1.64,1.64,0,0,0-1-.35c-1.23,0-2.6.8-4.2,2.43A8.77,8.77,0,0,0,161,71.6a3,3,0,0,0,.59,1.93,2.87,2.87,0,0,0,2.32,1,6.26,6.26,0,0,0,2.95-.86,13.28,13.28,0,0,0,2.9-2.15c1.61-1.56,1.79-2.21,1.79-2.56a.79.79,0,0,0-.76-.76Zm-4.53-2.06c.57-.45.88-.58,1.07-.58h.09a1.2,1.2,0,0,1-.22.61,7.54,7.54,0,0,1-1.89,2.08,6.06,6.06,0,0,1-1.18.65A8.45,8.45,0,0,1,166.25,66.17Z"/><path class="cls-1" d="M197.64,57.09a11.8,11.8,0,0,1-3.7,2.09c-.91.32-1.37.77-1.37,1.35a1,1,0,0,0,.29.72c.63.66,1.4.56,2.91-.2a15.43,15.43,0,0,0,4.31-3.22,6.2,6.2,0,0,0,2-4,2.4,2.4,0,0,0-1-2,3.22,3.22,0,0,0-2-.61,8.71,8.71,0,0,0-3.47.79,16.06,16.06,0,0,0-3.91,2.5c-2.24,2-3.38,4.14-3.38,6.43a6.2,6.2,0,0,0,.85,3c.49.88,1.1,1.86,1.81,2.93a14.19,14.19,0,0,1,1,1.67,2.89,2.89,0,0,1,.29,1.33,2.37,2.37,0,0,1-1,2,6.17,6.17,0,0,1-3.91,1.31,3,3,0,0,1-1.75-.48,1.76,1.76,0,0,1-.77-1.53,1.71,1.71,0,0,1,1.32-1.68c.91-.3,1.1-.81,1.1-1.17s-.13-1.08-1.26-1.08a3,3,0,0,0-1.09.25,4.26,4.26,0,0,0-1.58,1,3.88,3.88,0,0,0-1.11,2.81,3.64,3.64,0,0,0,1.17,2.66,5.78,5.78,0,0,0,4.18,1.48A8.55,8.55,0,0,0,192.4,74c1.68-1.13,2.53-2.47,2.53-4a5.33,5.33,0,0,0-.69-2.47c-.38-.7-.85-1.47-1.4-2.29s-1-1.6-1.38-2.26a4.94,4.94,0,0,1-.63-2.31A5.47,5.47,0,0,1,192,57.5a10.23,10.23,0,0,1,3.79-3.15,6.94,6.94,0,0,1,2.93-.91,1,1,0,0,1,.62.19.71.71,0,0,1,.3.59C199.66,55,199,56,197.64,57.09Z"/><path class="cls-1" d="M204.22,62.53a4.09,4.09,0,0,0-2.27.86,12.35,12.35,0,0,0-3.51,3.92,10.22,10.22,0,0,0-1.6,5.08,2.85,2.85,0,0,0,.28,1.29,1.89,1.89,0,0,0,1.78,1.13c1.61,0,3.19-1.33,4.85-4.07,1.48-2.45,2.23-4.51,2.23-6.13S205,62.53,204.22,62.53Zm-4.61,9.67a.41.41,0,0,1-.34-.19.63.63,0,0,1-.1-.36,6.49,6.49,0,0,1,.83-2.72,11,11,0,0,1,2.11-2.85c.91-.91,1.32-1,1.45-1a.19.19,0,0,1,.19.13.19.19,0,0,1,0,.12A4.84,4.84,0,0,1,202.27,68c-.59.67-.64.83-.64,1a.91.91,0,0,0,.39.64l-.17.36A4.9,4.9,0,0,1,201.2,71C200.61,71.81,200.07,72.2,199.61,72.2Z"/><path class="cls-1" d="M212.68,68a1.26,1.26,0,0,0-1,.75,23.16,23.16,0,0,1-1.39,2.07c-.8,1-1.24,1.1-1.42,1.1s-.12,0-.12-.14a4.28,4.28,0,0,1,.25-1.1c.17-.54.43-1.27.76-2.15.82-.73,1.46-1.32,1.94-1.76a42.53,42.53,0,0,0,4.78-5.18c3-3.94,4.5-6.71,4.5-8.45a1.69,1.69,0,0,0-.43-1.13,1.37,1.37,0,0,0-1.1-.52c-1.22,0-2.67,1.13-4.44,3.46a60.55,60.55,0,0,0-6.26,10.6,44.07,44.07,0,0,0-1.8,4.3,9.29,9.29,0,0,0-.62,2.85,1.91,1.91,0,0,0,.36,1.17,1.62,1.62,0,0,0,1.35.69c1.15,0,2.33-.83,3.62-2.55,1.63-2.15,1.82-2.89,1.82-3.26A.7.7,0,0,0,212.68,68Zm-1.05-3.69a52.71,52.71,0,0,1,3.57-6.41c2.24-3.38,3.05-3.74,3.31-3.75,0,0,0,0,0,.09,0,.34-.26,1.16-1.47,3.16A33.42,33.42,0,0,1,211.63,64.34Z"/><path class="cls-1" d="M224,65.51a1.05,1.05,0,0,0-.31-.75c-.51-.55-1.27-.39-1.92.41a6.38,6.38,0,0,0-.87,1.66,16.46,16.46,0,0,1-1.41,2.92c-1.38,2.21-2,2.45-2.26,2.45s-.1,0-.1,0a.28.28,0,0,1,0-.18,6.35,6.35,0,0,1,.85-2.56,18,18,0,0,1,2.2-3.17,2.33,2.33,0,0,0,.72-1.3.89.89,0,0,0-.26-.6c-.5-.5-1.14-.38-2,.35a9.55,9.55,0,0,0-1.85,2.18,10.21,10.21,0,0,0-2,5.41,2.68,2.68,0,0,0,.38,1.47,1.77,1.77,0,0,0,1.6.93,3.16,3.16,0,0,0,2.26-1.23c.27-.3.57-.66.9-1.09a1.09,1.09,0,0,0,0,.15,3.46,3.46,0,0,0,.92,2,2.55,2.55,0,0,0,1.82.8,1.29,1.29,0,0,0,.86-.3,1,1,0,0,0,.39-.79,1.09,1.09,0,0,0-.55-1,3.41,3.41,0,0,1-.88-.6A2.72,2.72,0,0,1,221.9,71a5.46,5.46,0,0,1,.79-2.43C223.82,66.47,224,65.82,224,65.51Z"/><path class="cls-1" d="M233.92,68.12a.85.85,0,0,0-.61-.25,1.2,1.2,0,0,0-1,.73,22.39,22.39,0,0,1-1.4,2c-1,1.28-1.57,1.55-1.91,1.55a.37.37,0,0,1-.32-.12.75.75,0,0,1-.12-.48A12.92,12.92,0,0,1,230,67a28.59,28.59,0,0,1,2-3.87l1.19-.37a16,16,0,0,1,2.62-.67h0a2.45,2.45,0,0,0,1-.21,1,1,0,0,0,.49-.87c0-.71-.47-1.12-1.28-1.12a10.26,10.26,0,0,0-2.15.35l.55-.77c.93-1.28,1-1.74,1-2a1,1,0,0,0-.29-.67c-.48-.52-1-.46-1.65.19-.21.23-.57.69-1.1,1.42a34.17,34.17,0,0,0-2,3,7.16,7.16,0,0,1-1.07.29,6.16,6.16,0,0,0-1.41.26,1.09,1.09,0,0,0-.68,1,1,1,0,0,0,.53.88,1.5,1.5,0,0,0,.82.22h.18c-.76,1.51-1.22,2.46-1.4,2.89A13.15,13.15,0,0,0,226.19,72a2.86,2.86,0,0,0,.43,1.68,2.09,2.09,0,0,0,1.75,1c1.24,0,2.55-.93,4-2.85,1.58-2.08,1.78-2.76,1.78-3.11A.78.78,0,0,0,233.92,68.12Z"/><path class="cls-1" d="M241.54,60.71a2.34,2.34,0,0,0,1.67-1,3,3,0,0,0,.85-1.85,1,1,0,0,0-1.1-1.12,2.14,2.14,0,0,0-1.46.8,3,3,0,0,0-1,2,1.11,1.11,0,0,0,.28.77A1,1,0,0,0,241.54,60.71Z"/><path class="cls-1" d="M240.53,64.27a1,1,0,0,0-.21-.58,1,1,0,0,0-1.6.09,9.1,9.1,0,0,0-1,1.3,25.07,25.07,0,0,0-2.91,5.31A15.31,15.31,0,0,0,233.67,74a1.08,1.08,0,0,0,.25.68,1,1,0,0,0,.81.4c.38,0,.89-.19,1.18-1.09a40.14,40.14,0,0,1,1.46-3.88A32.56,32.56,0,0,1,240,65.51,2.43,2.43,0,0,0,240.53,64.27Z"/><path class="cls-1" d="M247.34,62.53a4.09,4.09,0,0,0-2.27.86,12.35,12.35,0,0,0-3.51,3.92,10.22,10.22,0,0,0-1.6,5.08,2.85,2.85,0,0,0,.28,1.29A1.89,1.89,0,0,0,242,74.81c1.61,0,3.19-1.33,4.85-4.07,1.48-2.45,2.22-4.51,2.22-6.13S248.14,62.53,247.34,62.53Zm-4.61,9.67a.41.41,0,0,1-.34-.19.63.63,0,0,1-.1-.36,6.49,6.49,0,0,1,.83-2.72,11,11,0,0,1,2.11-2.85c.91-.91,1.32-1,1.45-1a.19.19,0,0,1,.19.13.19.19,0,0,1,0,.12A4.84,4.84,0,0,1,245.39,68c-.59.67-.64.83-.64,1a.91.91,0,0,0,.39.64L245,70a4.59,4.59,0,0,1-.66,1.05C243.73,71.81,243.19,72.2,242.73,72.2Z"/><path class="cls-1" d="M259.36,64.91a.93.93,0,0,0-1-1.06c-.52,0-1.48.29-4,2.54a2.46,2.46,0,0,0,.56-1.28,1.08,1.08,0,0,0-.34-.79c-.56-.56-1.25-.36-2.06.81-.45.67-1.08,1.75-1.86,3.22-2,3.7-2.21,4.72-2.21,5.16a1.15,1.15,0,0,0,.32.84.94.94,0,0,0,.72.31c.52,0,1-.36,1.41-1.1a16.65,16.65,0,0,1,3.22-4.44,9.38,9.38,0,0,0-1.12,4.14,4.59,4.59,0,0,0,.52,2.25,1.72,1.72,0,0,0,1.49,1.09,1,1,0,0,0,.75-.33.83.83,0,0,0,.31-.63,1.6,1.6,0,0,0-.29-.8,3.31,3.31,0,0,1-.49-1.7c0-1.93,1.12-4.21,3.32-6.77A2.41,2.41,0,0,0,259.36,64.91Z"/><path class="cls-1" d="M269.75,62.64a3.13,3.13,0,0,0-1.83-.44,7.18,7.18,0,0,0-4.14,1.36A4.16,4.16,0,0,0,261.72,67a5.58,5.58,0,0,0,1.22,3.14,3.4,3.4,0,0,1,.8,1.75,1.18,1.18,0,0,1-.25.8,1,1,0,0,1-.85.35,1.44,1.44,0,0,1-1.05-.44,1.67,1.67,0,0,1-.53-1.26,3.51,3.51,0,0,1,.37-1.64,1.18,1.18,0,0,0,.2-.57.66.66,0,0,0-.75-.66,1.52,1.52,0,0,0-1.19.74,4,4,0,0,0-.78,2.51,3.75,3.75,0,0,0,.68,2.23,3.31,3.31,0,0,0,2.84,1.35,3.76,3.76,0,0,0,2.09-.6A3.05,3.05,0,0,0,266,72,5,5,0,0,0,265,69.23a4.21,4.21,0,0,1-.89-2.14,2.36,2.36,0,0,1,1.3-2,3.88,3.88,0,0,1,2.1-.78.75.75,0,0,1,.45.1.41.41,0,0,1,.1.32.89.89,0,0,1-.37.66,2.42,2.42,0,0,1-1.08.55,8.09,8.09,0,0,0-1.28.33,1,1,0,0,0-.59.94c0,1,1,1.21,2.52.64a5.57,5.57,0,0,0,2.37-1.58,3.52,3.52,0,0,0,.84-2.21A1.65,1.65,0,0,0,269.75,62.64Z"/><path class="cls-2" d="M11.67,33.69h13v8.93H0V.65H11.67Z"/><path class="cls-2" d="M39.77,40.27a20.48,20.48,0,0,1-7.83-7.68,21.42,21.42,0,0,1-2.89-11.1,21.42,21.42,0,0,1,2.89-11.1,20.26,20.26,0,0,1,7.83-7.65,22.85,22.85,0,0,1,21.7,0,20.24,20.24,0,0,1,7.77,7.65,21.69,21.69,0,0,1,2.85,11.1,21.69,21.69,0,0,1-2.85,11.1,20.4,20.4,0,0,1-7.8,7.68,22.58,22.58,0,0,1-21.67,0Zm17.89-11a11.3,11.3,0,0,0,2.59-7.8,11.39,11.39,0,0,0-2.59-7.89,9,9,0,0,0-7.06-2.88,9,9,0,0,0-7.08,2.88A11.47,11.47,0,0,0,41,21.49a11.38,11.38,0,0,0,2.56,7.83,9,9,0,0,0,7.08,2.89A9,9,0,0,0,57.66,29.29Z"/><path class="cls-2" d="M105.37,14.47a6.71,6.71,0,0,0-2.77-2.56,9,9,0,0,0-4.13-.9,8.78,8.78,0,0,0-6.94,2.86A11.15,11.15,0,0,0,89,21.55q0,5.41,2.71,8.24c1.81,1.89,4.43,2.83,7.89,2.83a9,9,0,0,0,8.75-5.53H96.62v-8.4h21.79V30a21.07,21.07,0,0,1-4,6.25,20.47,20.47,0,0,1-6.7,4.8,21.66,21.66,0,0,1-9.22,1.87A22.5,22.5,0,0,1,87.3,40.21a18.82,18.82,0,0,1-7.5-7.56,22.83,22.83,0,0,1-2.65-11.1,22.7,22.7,0,0,1,2.65-11A18.87,18.87,0,0,1,87.27,3,22.34,22.34,0,0,1,98.41.24q7.91,0,13.09,3.81a16.12,16.12,0,0,1,6.43,10.42Z"/><path class="cls-2" d="M136.57.65v42H124.9V.65Z"/><path class="cls-2" d="M170.74,42.62l-8.16-11.84-7,11.84H142.34L156,21.13,141.87.65h13.75l7.92,11.55L170.32.65H183.6L170.14,21.79l14.35,20.83Z"/><path class="cls-2" d="M201.4,33.69h13v8.93H189.73V.65H201.4Z"/><path class="cls-2" d="M246.76,35.78H231.88l-2.26,6.84H217.35l15.3-42h13.46l15.24,42H249Zm-2.91-8.93-4.53-13.57-4.46,13.57Z"/><path class="cls-2" d="M305.28,42.62H293.61L278.08,19.17V42.62H266.41V.65h11.67l15.53,23.76V.65h11.67Z"/><path class="cls-2" d="M341.39,3.3A18.61,18.61,0,0,1,349,10.72a21.76,21.76,0,0,1,2.68,10.89A21.45,21.45,0,0,1,349,32.44a19.27,19.27,0,0,1-7.68,7.48,23.74,23.74,0,0,1-11.52,2.7H313.2V.65h16.61A24.31,24.31,0,0,1,341.39,3.3ZM337,29.53q2.93-2.8,2.92-7.92t-2.92-8q-2.91-2.82-8-2.82h-4.05V32.33h4.05C332.33,32.33,335,31.39,337,29.53Z"/><rect class="cls-2" x="9.44" y="67.04" width="60.71" height="2.02"/><rect class="cls-2" x="280.21" y="67.04" width="60.71" height="2.02"/></g></g></svg>